<svg width="37" height="37" viewBox="0 0 37 37" fill="none" xmlns="http://www.w3.org/2000/svg">
<path d="M6.16671 27.7499V27.4416C6.16671 24.8513 6.16671 23.5562 6.6708 22.5669C7.11422 21.6966 7.82175 20.9891 8.692 20.5457C9.68134 20.0416 10.9765 20.0416 13.5667 20.0416H23.4334C26.0236 20.0416 27.3187 20.0416 28.3081 20.5457C29.1783 20.9891 29.8859 21.6966 30.3293 22.5669C30.8334 23.5562 30.8334 24.8513 30.8334 27.4416V27.7499M6.16671 27.7499C4.46383 27.7499 3.08337 29.1304 3.08337 30.8333C3.08337 32.5361 4.46383 33.9166 6.16671 33.9166C7.86959 33.9166 9.25004 32.5361 9.25004 30.8333C9.25004 29.1304 7.86959 27.7499 6.16671 27.7499ZM30.8334 27.7499C29.1305 27.7499 27.75 29.1304 27.75 30.8333C27.75 32.5361 29.1305 33.9166 30.8334 33.9166C32.5363 33.9166 33.9167 32.5361 33.9167 30.8333C33.9167 29.1304 32.5363 27.7499 30.8334 27.7499ZM18.5 27.7499C16.7972 27.7499 15.4167 29.1304 15.4167 30.8333C15.4167 32.5361 16.7972 33.9166 18.5 33.9166C20.2029 33.9166 21.5834 32.5361 21.5834 30.8333C21.5834 29.1304 20.2029 27.7499 18.5 27.7499ZM18.5 27.7499V12.3333M9.25004 12.3333H27.75C29.1867 12.3333 29.905 12.3333 30.4716 12.0985C31.2272 11.7856 31.8274 11.1854 32.1403 10.4299C32.375 9.86323 32.375 9.1449 32.375 7.70825C32.375 6.2716 32.375 5.55327 32.1403 4.98664C31.8274 4.23114 31.2272 3.6309 30.4716 3.31796C29.905 3.08325 29.1867 3.08325 27.75 3.08325H9.25004C7.81339 3.08325 7.09506 3.08325 6.52843 3.31796C5.77293 3.6309 5.17269 4.23114 4.85975 4.98664C4.62504 5.55327 4.62504 6.2716 4.62504 7.70825C4.62504 9.1449 4.62504 9.86323 4.85975 10.4299C5.17269 11.1854 5.77293 11.7856 6.52843 12.0985C7.09506 12.3333 7.81339 12.3333 9.25004 12.3333Z" stroke="#2361A9" stroke-width="2" stroke-linecap="round" stroke-linejoin="round"/>
</svg>
